<mxfile host="Electron" agent="Mozilla/5.0 (Windows NT 10.0; Win64; x64) AppleWebKit/537.36 (KHTML, like Gecko) draw.io/27.0.2 Chrome/134.0.6998.205 Electron/35.3.0 Safari/537.36" version="27.0.2">
  <diagram name="Page-1" id="RH6nrCcWuVhgYhGJwdLU">
    <mxGraphModel dx="1042" dy="626" grid="1" gridSize="10" guides="1" tooltips="1" connect="1" arrows="1" fold="1" page="1" pageScale="1" pageWidth="850" pageHeight="1100" math="0" shadow="0">
      <root>
        <mxCell id="0" />
        <mxCell id="1" parent="0" />
        <mxCell id="lLTY7_Zr0CbymDJMCOrj-1" value="מערכת ניטור&amp;nbsp;" style="ellipse;whiteSpace=wrap;html=1;fillColor=#f8cecc;strokeColor=#b85450;" parent="1" vertex="1">
          <mxGeometry x="305" y="240" width="120" height="80" as="geometry" />
        </mxCell>
        <mxCell id="lLTY7_Zr0CbymDJMCOrj-2" value="משתמש" style="ellipse;whiteSpace=wrap;html=1;aspect=fixed;fillColor=#d5e8d4;strokeColor=#82b366;" parent="1" vertex="1">
          <mxGeometry x="590" y="240" width="80" height="80" as="geometry" />
        </mxCell>
        <mxCell id="lLTY7_Zr0CbymDJMCOrj-4" value="VIRUS TOTAL API" style="ellipse;whiteSpace=wrap;html=1;aspect=fixed;fillColor=#dae8fc;strokeColor=#6c8ebf;" parent="1" vertex="1">
          <mxGeometry x="70" y="250" width="80" height="80" as="geometry" />
        </mxCell>
        <mxCell id="lLTY7_Zr0CbymDJMCOrj-19" value="" style="endArrow=classic;html=1;rounded=0;exitX=0.042;exitY=0.29;exitDx=0;exitDy=0;entryX=1;entryY=0;entryDx=0;entryDy=0;exitPerimeter=0;" parent="1" source="lLTY7_Zr0CbymDJMCOrj-1" target="lLTY7_Zr0CbymDJMCOrj-4" edge="1">
          <mxGeometry width="50" height="50" relative="1" as="geometry">
            <mxPoint x="450" y="300" as="sourcePoint" />
            <mxPoint x="400" y="350" as="targetPoint" />
          </mxGeometry>
        </mxCell>
        <mxCell id="lLTY7_Zr0CbymDJMCOrj-20" value="נתוני בדיקה&lt;br&gt;(כתובות URL,&lt;br&gt;&amp;nbsp;ערכי גיבוב של קבצים)" style="edgeLabel;html=1;align=center;verticalAlign=middle;resizable=0;points=[];" parent="lLTY7_Zr0CbymDJMCOrj-19" vertex="1" connectable="0">
          <mxGeometry x="-0.069" relative="1" as="geometry">
            <mxPoint x="-6" as="offset" />
          </mxGeometry>
        </mxCell>
        <mxCell id="zT8zyoZyY9B16h4DEHLp-2" value="" style="endArrow=classic;html=1;rounded=0;exitX=0;exitY=0.5;exitDx=0;exitDy=0;entryX=1;entryY=0.5;entryDx=0;entryDy=0;" parent="1" source="lLTY7_Zr0CbymDJMCOrj-2" target="lLTY7_Zr0CbymDJMCOrj-1" edge="1">
          <mxGeometry width="50" height="50" relative="1" as="geometry">
            <mxPoint x="400" y="350" as="sourcePoint" />
            <mxPoint x="450" y="300" as="targetPoint" />
          </mxGeometry>
        </mxCell>
        <mxCell id="zT8zyoZyY9B16h4DEHLp-3" value="נתוני משתמש" style="edgeLabel;html=1;align=center;verticalAlign=middle;resizable=0;points=[];" parent="zT8zyoZyY9B16h4DEHLp-2" vertex="1" connectable="0">
          <mxGeometry x="-0.3324" relative="1" as="geometry">
            <mxPoint x="1" as="offset" />
          </mxGeometry>
        </mxCell>
        <mxCell id="zT8zyoZyY9B16h4DEHLp-4" value="&amp;nbsp;רשת" style="ellipse;whiteSpace=wrap;html=1;aspect=fixed;fillColor=#fff2cc;strokeColor=#d6b656;" parent="1" vertex="1">
          <mxGeometry x="325" y="90" width="80" height="80" as="geometry" />
        </mxCell>
        <mxCell id="zT8zyoZyY9B16h4DEHLp-5" value="משאבים מנוטרים&amp;nbsp;" style="ellipse;whiteSpace=wrap;html=1;aspect=fixed;fillColor=#e1d5e7;strokeColor=#9673a6;" parent="1" vertex="1">
          <mxGeometry x="325" y="410" width="80" height="80" as="geometry" />
        </mxCell>
        <mxCell id="zT8zyoZyY9B16h4DEHLp-7" value="" style="endArrow=classic;html=1;rounded=0;exitX=0.962;exitY=0.72;exitDx=0;exitDy=0;exitPerimeter=0;entryX=0.045;entryY=0.72;entryDx=0;entryDy=0;entryPerimeter=0;" parent="1" source="lLTY7_Zr0CbymDJMCOrj-1" target="lLTY7_Zr0CbymDJMCOrj-2" edge="1">
          <mxGeometry width="50" height="50" relative="1" as="geometry">
            <mxPoint x="400" y="420" as="sourcePoint" />
            <mxPoint x="450" y="370" as="targetPoint" />
          </mxGeometry>
        </mxCell>
        <mxCell id="pT_HB9KxdguPN94yI6Qg-2" value="פרטי פעילויות ניטור" style="edgeLabel;html=1;align=center;verticalAlign=middle;resizable=0;points=[];" vertex="1" connectable="0" parent="zT8zyoZyY9B16h4DEHLp-7">
          <mxGeometry x="0.2377" y="1" relative="1" as="geometry">
            <mxPoint x="-17" y="3" as="offset" />
          </mxGeometry>
        </mxCell>
        <mxCell id="zT8zyoZyY9B16h4DEHLp-9" value="" style="endArrow=classic;html=1;rounded=0;exitX=0.5;exitY=0;exitDx=0;exitDy=0;entryX=0.5;entryY=1;entryDx=0;entryDy=0;" parent="1" source="zT8zyoZyY9B16h4DEHLp-5" target="lLTY7_Zr0CbymDJMCOrj-1" edge="1">
          <mxGeometry width="50" height="50" relative="1" as="geometry">
            <mxPoint x="400" y="420" as="sourcePoint" />
            <mxPoint x="450" y="370" as="targetPoint" />
          </mxGeometry>
        </mxCell>
        <mxCell id="zT8zyoZyY9B16h4DEHLp-10" value="נתוני&lt;br&gt;&amp;nbsp;משאבים" style="edgeLabel;html=1;align=center;verticalAlign=middle;resizable=0;points=[];" parent="zT8zyoZyY9B16h4DEHLp-9" vertex="1" connectable="0">
          <mxGeometry x="0.2422" y="-2" relative="1" as="geometry">
            <mxPoint x="-7" y="16" as="offset" />
          </mxGeometry>
        </mxCell>
        <mxCell id="zT8zyoZyY9B16h4DEHLp-11" value="" style="endArrow=classic;html=1;rounded=0;exitX=0.5;exitY=1;exitDx=0;exitDy=0;entryX=0.5;entryY=0;entryDx=0;entryDy=0;" parent="1" source="zT8zyoZyY9B16h4DEHLp-4" target="lLTY7_Zr0CbymDJMCOrj-1" edge="1">
          <mxGeometry width="50" height="50" relative="1" as="geometry">
            <mxPoint x="400" y="420" as="sourcePoint" />
            <mxPoint x="450" y="370" as="targetPoint" />
          </mxGeometry>
        </mxCell>
        <mxCell id="zT8zyoZyY9B16h4DEHLp-12" value="נתוני רשת" style="edgeLabel;html=1;align=center;verticalAlign=middle;resizable=0;points=[];" parent="zT8zyoZyY9B16h4DEHLp-11" vertex="1" connectable="0">
          <mxGeometry x="-0.1714" y="-1" relative="1" as="geometry">
            <mxPoint as="offset" />
          </mxGeometry>
        </mxCell>
        <mxCell id="zT8zyoZyY9B16h4DEHLp-13" value="" style="endArrow=classic;html=1;rounded=0;exitX=1.02;exitY=0.675;exitDx=0;exitDy=0;entryX=0;entryY=1;entryDx=0;entryDy=0;exitPerimeter=0;" parent="1" source="lLTY7_Zr0CbymDJMCOrj-4" target="lLTY7_Zr0CbymDJMCOrj-1" edge="1">
          <mxGeometry width="50" height="50" relative="1" as="geometry">
            <mxPoint x="400" y="420" as="sourcePoint" />
            <mxPoint x="450" y="370" as="targetPoint" />
          </mxGeometry>
        </mxCell>
        <mxCell id="zT8zyoZyY9B16h4DEHLp-14" value="נתוני תוצאת סריקה" style="edgeLabel;html=1;align=center;verticalAlign=middle;resizable=0;points=[];" parent="zT8zyoZyY9B16h4DEHLp-13" vertex="1" connectable="0">
          <mxGeometry x="-0.0952" y="-4" relative="1" as="geometry">
            <mxPoint as="offset" />
          </mxGeometry>
        </mxCell>
      </root>
    </mxGraphModel>
  </diagram>
</mxfile>
